<?xml version="1.0" encoding="utf-8"?>
<!-- Generator: Adobe Illustrator 19.0.0, SVG Export Plug-In . SVG Version: 6.00 Build 0)  -->
<svg version="1.1" id="Layer_1" xmlns="http://www.w3.org/2000/svg" xmlns:xlink="http://www.w3.org/1999/xlink" x="0px" y="0px"
	 viewBox="0 0 48 34" style="enable-background:new 0 0 48 34;" xml:space="preserve">
<style type="text/css">
	.st0{fill:#FFFFFF;}
</style>
<g id="XMLID_6_">
	<path id="XMLID_58_" class="st0" d="M47.2,30.8L33.7,16.2L47.2,2.8C47.5,2.5,48,2.7,48,3.1v27.4C48,30.9,47.5,31.1,47.2,30.8z
		 M26.6,23.3c-0.8,0.8-1.8,1.2-2.9,1.2h0c-1.1,0-2.2-0.4-3-1.2l-4-4L2.9,33.2C2.6,33.5,2.8,34,3.2,34H45c0.4,0,0.6-0.5,0.3-0.7
		L31.5,18.4L26.6,23.3z M23.6,21.5L23.6,21.5c0.3,0,0.6-0.1,0.8-0.3L44.9,0.8C45.2,0.5,45,0,44.6,0H2.6C2.2,0,2,0.5,2.3,0.8
		l20.5,20.4C23.1,21.3,23.3,21.5,23.6,21.5z M0,3.9v26.8c0,0.4,0.5,0.6,0.8,0.3l13.7-13.8L0.8,3.6C0.5,3.3,0,3.5,0,3.9z"/>
</g>
</svg>
