<?xml version="1.0" encoding="utf-8"?>
<!-- Generator: Adobe Illustrator 19.0.0, SVG Export Plug-In . SVG Version: 6.00 Build 0)  -->
<svg version="1.1" id="Layer_1" xmlns="http://www.w3.org/2000/svg" xmlns:xlink="http://www.w3.org/1999/xlink" x="0px" y="0px"
	 viewBox="0 0 49 48" style="enable-background:new 0 0 49 48;" xml:space="preserve">
<style type="text/css">
	.st0{fill-rule:evenodd;clip-rule:evenodd;fill:#191717;}
	.st1{fill:#191717;}
</style>
<g id="XMLID_61_">
	<path id="XMLID_179_" class="st0" d="M24.5,0C11,0,0,11,0,24.6C0,35.5,7,44.7,16.8,48c1.2,0.2,1.7-0.5,1.7-1.2c0-0.6,0-2.5,0-4.6
		c-6.8,1.5-8.3-2.9-8.3-2.9c-1.1-2.8-2.7-3.6-2.7-3.6c-2.2-1.5,0.2-1.5,0.2-1.5c2.5,0.2,3.8,2.5,3.8,2.5c2.2,3.8,5.7,2.7,7.1,2
		c0.2-1.6,0.9-2.7,1.6-3.3c-5.4-0.6-11.2-2.7-11.2-12.2c0-2.7,1-4.9,2.5-6.6c-0.3-0.6-1.1-3.1,0.2-6.5c0,0,2.1-0.7,6.7,2.5
		c2-0.5,4.1-0.8,6.1-0.8c2.1,0,4.2,0.3,6.1,0.8c4.7-3.2,6.7-2.5,6.7-2.5c1.3,3.4,0.5,5.9,0.2,6.5c1.6,1.7,2.5,3.9,2.5,6.6
		c0,9.5-5.7,11.5-11.2,12.1c0.9,0.8,1.7,2.3,1.7,4.6c0,3.3,0,5.9,0,6.8c0,0.7,0.4,1.4,1.7,1.2C42,44.7,49,35.5,49,24.6
		C49,11,38,0,24.5,0z"/>
	<path id="XMLID_176_" class="st1" d="M9.3,35.3c-0.1,0.1-0.2,0.2-0.4,0.1c-0.2-0.1-0.3-0.2-0.2-0.4c0.1-0.1,0.2-0.2,0.4-0.1
		C9.2,35,9.3,35.2,9.3,35.3L9.3,35.3z M9,35.1"/>
	<path id="XMLID_173_" class="st1" d="M10.3,36.4c-0.1,0.1-0.3,0.1-0.5-0.1c-0.2-0.2-0.2-0.4-0.1-0.5c0.1-0.1,0.3-0.1,0.5,0.1
		C10.4,36.1,10.4,36.3,10.3,36.4L10.3,36.4z M10,36.2"/>
	<path id="XMLID_170_" class="st1" d="M11.2,37.9c-0.2,0.1-0.4,0-0.5-0.2c-0.2-0.2-0.2-0.5,0-0.6c0.2-0.1,0.4,0,0.5,0.2
		C11.4,37.5,11.4,37.8,11.2,37.9L11.2,37.9z M11.2,37.9"/>
	<path id="XMLID_167_" class="st1" d="M12.6,39.2c-0.1,0.1-0.4,0.1-0.6-0.1c-0.2-0.2-0.3-0.5-0.1-0.6c0.1-0.1,0.4-0.1,0.6,0.1
		C12.6,38.8,12.7,39.1,12.6,39.2L12.6,39.2z M12.6,39.2"/>
	<path id="XMLID_164_" class="st1" d="M14.4,40c-0.1,0.2-0.3,0.3-0.6,0.2c-0.3-0.1-0.5-0.3-0.4-0.5c0.1-0.2,0.3-0.3,0.6-0.2
		C14.3,39.6,14.4,39.8,14.4,40L14.4,40z M14.4,40"/>
	<path id="XMLID_87_" class="st1" d="M16.4,40.2c0,0.2-0.2,0.4-0.5,0.4c-0.3,0-0.5-0.2-0.5-0.4c0-0.2,0.2-0.4,0.5-0.4
		C16.2,39.8,16.4,40,16.4,40.2L16.4,40.2z M16.4,40.2"/>
	<path id="XMLID_84_" class="st1" d="M18.3,39.9c0,0.2-0.2,0.4-0.5,0.5c-0.3,0.1-0.5-0.1-0.6-0.3c0-0.2,0.2-0.4,0.5-0.5
		C18,39.5,18.2,39.7,18.3,39.9L18.3,39.9z M18.3,39.9"/>
</g>
</svg>
