<?xml version="1.0" encoding="utf-8"?>
<!-- Generator: Adobe Illustrator 19.0.0, SVG Export Plug-In . SVG Version: 6.00 Build 0)  -->
<svg version="1.1" id="Layer_1" xmlns="http://www.w3.org/2000/svg" xmlns:xlink="http://www.w3.org/1999/xlink" x="0px" y="0px"
	 viewBox="0 0 72 62" style="enable-background:new 0 0 72 62;" xml:space="preserve">
<style type="text/css">
	.st0{fill:#424143;}
</style>
<path id="XMLID_2_" class="st0" d="M72,3c0-1.6-1.3-3-3-3H3C1.3,0,0,1.3,0,3v56c0,1.6,1.3,3,3,3H69c1.6,0,3-1.3,3-3V3z M27.4,22.6
	c-2.1,0-3.7,1.7-3.7,3.7c0,0.5,0.1,1,0.3,1.4l-3.1,4v-26h13.5v22.5l-3.1-1.8c0,0,0-0.1,0-0.1C31.2,24.2,29.5,22.6,27.4,22.6z
	 M26.5,29.9c0.3,0.1,0.6,0.1,1,0.1c0.8,0,1.7-0.3,2.3-0.7l4.6,2.7v23.9H20.9V37.1L26.5,29.9z M37.7,34l2.9,1.8
	c0,0.1-0.1,0.2-0.1,0.3c0,2.1,1.6,3.7,3.7,3.7c2.1,0,3.7-1.7,3.7-3.7c0-0.5,0.1-1-0.1-1.5l3.4-4v25.3H37.7V34z M45.2,32.5
	c-0.3-0.1-0.7-0.1-1-0.1c-0.8,0-1.4,0.2-2,0.6l-4.6-2.8V5.7h13.5v19.6L45.2,32.5z M5.7,5.7h12.1V36l-5.3,6.6c-0.2,0-0.6-0.1-0.8-0.1
	c-2.1,0-3.7,1.7-3.7,3.7c0,2.1,1.6,3.7,3.7,3.7s3.7-1.7,3.7-3.7c0-0.6,0-1.1-0.2-1.6l2.7-3.3v14.6H5.7L5.7,5.7L5.7,5.7z M66.3,55.9
	H54.2V26.5l5.4-6.9c0.3,0.1,0.5,0.1,0.7,0.1c2.1,0,3.7-1.7,3.7-3.7c0-2.1-1.7-3.7-3.7-3.7s-3.7,1.7-3.7,3.7c0,0.6,0.2,1.1,0.4,1.6
	l-2.8,3.6V5.7h12.1V55.9z"/>
</svg>
