<?xml version="1.0" encoding="utf-8"?>
<!-- Generator: Adobe Illustrator 19.0.0, SVG Export Plug-In . SVG Version: 6.00 Build 0)  -->
<svg version="1.1" id="Layer_1" xmlns="http://www.w3.org/2000/svg" xmlns:xlink="http://www.w3.org/1999/xlink" x="0px" y="0px"
	 viewBox="0 0 34 34" style="enable-background:new 0 0 34 34;" xml:space="preserve">
<style type="text/css">
	.st0{fill:#FFFFFF;}
</style>
<path id="XMLID_2_" class="st0" d="M33,28.3L18.1,13.4c0.5-0.9,0.4-2.1-0.4-2.9l-0.1-0.1l7.7-7.7c0.4-0.4,0.5-0.9,0.4-1.4
	c-0.1-0.5-0.5-0.9-0.9-1.1C24.4,0.1,23.9,0,23.4,0c-2.6,0-6.6,2-10.8,5.4L12.2,5c-0.5-0.5-1.1-0.7-1.7-0.7c-0.4,0-0.8,0.1-1.2,0.3
	L9.3,4.6c-0.6-0.6-1.5-1-2.3-1c-0.9,0-1.7,0.3-2.3,1c-0.6,0.6-1,1.5-1,2.3s0.3,1.7,1,2.3l0.1,0.1c-0.5,0.9-0.4,2.1,0.4,2.9l0.3,0.3
	C2,16.7-0.9,21.9,0.3,24.9c0.2,0.6,0.8,1,1.4,1c0.4,0,0.8-0.2,1.1-0.4l7.7-7.7l0.1,0.1c0.5,0.5,1.1,0.7,1.7,0.7
	c0.4,0,0.8-0.1,1.2-0.3L28.3,33c0.6,0.6,1.5,1,2.3,1c0.9,0,1.7-0.3,2.3-1C34.3,31.7,34.3,29.6,33,28.3z M12.2,16.6
	c-0.2,0-0.3-0.1-0.4-0.2l-1.4-1.4l-8.6,8.6c-0.1-0.9,0.2-2.2,0.9-3.8c1-2.1,2.5-4.4,4.5-6.8l0.5-0.6l-1.5-1.5
	c-0.2-0.2-0.2-0.6,0-0.8l3.8-3.8c0.1-0.1,0.3-0.2,0.4-0.2c0.2,0,0.3,0.1,0.4,0.2l1.5,1.5l0.6-0.5c4-3.4,7.9-5.5,10.3-5.5
	c0.1,0,0.2,0,0.3,0l-8.6,8.6l1.4,1.4c0.2,0.2,0.2,0.6,0,0.8l-3.8,3.8C12.5,16.5,12.4,16.6,12.2,16.6z M5.5,6.5
	c0-0.1,0.1-0.2,0.1-0.3C5.7,6.1,5.8,6,5.9,5.9C6,5.7,6.3,5.6,6.5,5.5c0.1,0,0.3-0.1,0.4-0.1c0.1,0,0.3,0,0.4,0.1
	c0.2,0.1,0.4,0.1,0.5,0.3c0,0,0.1,0.1,0.1,0.1l0,0L5.9,8l0,0C5.6,7.8,5.5,7.5,5.5,7.2c0-0.1,0-0.2,0-0.3C5.4,6.8,5.4,6.6,5.5,6.5z
	 M32.2,30.8c0,0.1,0,0.3-0.1,0.4c-0.1,0.2-0.2,0.3-0.3,0.5c-0.1,0.1-0.3,0.3-0.5,0.3c-0.1,0-0.2,0.1-0.3,0.1c-0.1,0-0.2,0-0.3,0
	c-0.4,0-0.8-0.1-1.1-0.4L14.8,16.9l2.1-2.1l3,3l11.9,11.9c0.1,0.1,0.3,0.3,0.3,0.5c0.1,0.1,0.1,0.3,0.1,0.4
	C32.2,30.6,32.2,30.7,32.2,30.8z"/>
</svg>
