<?xml version="1.0" encoding="utf-8"?>
<!-- Generator: Adobe Illustrator 19.0.0, SVG Export Plug-In . SVG Version: 6.00 Build 0)  -->
<svg version="1.1" id="Layer_1" xmlns="http://www.w3.org/2000/svg" xmlns:xlink="http://www.w3.org/1999/xlink" x="0px" y="0px"
	 viewBox="0 0 42 28" style="enable-background:new 0 0 42 28;" xml:space="preserve">
<style type="text/css">
	.st0{fill:#273677;}
	.st1{fill:#FFFFFF;}
	.st2{fill:#EF3734;}
</style>
<g id="XMLID_61_">
	<g id="XMLID_117_">
		<polygon id="XMLID_118_" class="st0" points="24.5,28 36.8,28 24.5,19.6 		"/>
	</g>
	<g id="XMLID_115_">
		<path id="XMLID_116_" class="st0" d="M0,18.6v5.9c0,0.2,0,0.4,0.1,0.7l9.4-6.4L0,18.6z"/>
	</g>
	<g id="XMLID_113_">
		<path id="XMLID_114_" class="st0" d="M0.1,2.9C0,3.1,0,3.3,0,3.6v5.6l9.4,0.2L0.1,2.9z"/>
	</g>
	<g id="XMLID_111_">
		<polygon id="XMLID_112_" class="st0" points="37.2,0 24.5,0 24.5,8.6 		"/>
	</g>
	<g id="XMLID_109_">
		<path id="XMLID_110_" class="st0" d="M42,9.1V3.6c0-0.2,0-0.4-0.1-0.7l-9.3,6.4L42,9.1z"/>
	</g>
	<g id="XMLID_107_">
		<path id="XMLID_108_" class="st0" d="M41.9,25.1c0-0.2,0.1-0.4,0.1-0.7v-5.9l-9.5,0.2L41.9,25.1z"/>
	</g>
	<g id="XMLID_105_">
		<polygon id="XMLID_106_" class="st0" points="17.5,0 4.8,0 17.5,8.6 		"/>
	</g>
	<g id="XMLID_103_">
		<polygon id="XMLID_104_" class="st0" points="5.2,28 17.5,28 17.5,19.6 		"/>
	</g>
	<g id="XMLID_94_">
		<g id="XMLID_101_">
			<path id="XMLID_102_" class="st1" d="M17.5,8.6L4.8,0H3.6C2.8,0,2.1,0.3,1.5,0.7L14,9.4h-3.1L0.3,2C0.2,2.3,0.1,2.6,0.1,2.9
				l9.3,6.4L0,9.1V11l12.2,0.2l6.7,0.1V9.5V0h-1.4V8.6z"/>
		</g>
		<g id="XMLID_99_">
			<path id="XMLID_100_" class="st1" d="M23.1,17v1.6V28h1.4v-8.4L36.8,28h1.6c0.9,0,1.7-0.3,2.3-0.8L28,18.9h3.1l10.6,6.9
				c0.1-0.2,0.1-0.4,0.2-0.7l-9.4-6.4l9.5-0.2v-1.9l-12.2,0.2L23.1,17z"/>
		</g>
		<g id="XMLID_97_">
			<path id="XMLID_98_" class="st1" d="M0,16.7v1.9l9.5,0.2l-9.4,6.4c0.2,0.8,0.6,1.6,1.2,2.1L14,18.9h3.1L3.6,28h1.6l12.3-8.4V28
				h1.4v-9.4V17l-6.7-0.1L0,16.7z"/>
		</g>
		<g id="XMLID_95_">
			<path id="XMLID_96_" class="st1" d="M32.6,9.3l9.3-6.4c-0.2-0.9-0.7-1.7-1.4-2.2L28,9.4h-3.1L38.4,0h-1.2L24.5,8.6V0h-1.4v9.5
				v1.8l6.7-0.1L42,11V9.1L32.6,9.3z"/>
		</g>
	</g>
	<g id="XMLID_92_">
		<polygon id="XMLID_93_" class="st2" points="29.8,11.2 23.1,11.3 23.1,9.5 23.1,0 18.9,0 18.9,9.5 18.9,11.3 12.2,11.2 0,11 
			0,16.7 12.2,16.9 18.9,17 18.9,18.6 18.9,28 23.1,28 23.1,18.6 23.1,17 29.8,16.9 42,16.7 42,11 		"/>
	</g>
	<g id="XMLID_90_">
		<path id="XMLID_91_" class="st2" d="M10.8,9.4H14L1.5,0.7C1,1,0.6,1.5,0.3,2L10.8,9.4z"/>
	</g>
	<g id="XMLID_88_">
		<path id="XMLID_89_" class="st2" d="M24.9,9.4H28l12.5-8.7C39.9,0.3,39.2,0,38.4,0h0L24.9,9.4z"/>
	</g>
	<g id="XMLID_86_">
		<path id="XMLID_87_" class="st2" d="M28,18.9l12.7,8.3c0.5-0.4,0.8-0.9,1-1.4l-10.6-6.9H28z"/>
	</g>
	<g id="XMLID_84_">
		<path id="XMLID_85_" class="st2" d="M14,18.9L1.3,27.2C1.9,27.7,2.7,28,3.6,28h0l13.5-9.1H14z"/>
	</g>
</g>
</svg>
