<?xml version="1.0" encoding="utf-8"?>
<!-- Generator: Adobe Illustrator 19.0.0, SVG Export Plug-In . SVG Version: 6.00 Build 0)  -->
<svg version="1.1" id="Layer_1" xmlns="http://www.w3.org/2000/svg" xmlns:xlink="http://www.w3.org/1999/xlink" x="0px" y="0px"
	 viewBox="0 0 38 28" style="enable-background:new 0 0 38 28;" xml:space="preserve">
<style type="text/css">
	.st0{fill-rule:evenodd;clip-rule:evenodd;fill:#FFFFFF;}
</style>
<path id="XMLID_2_" class="st0" d="M6.6,0h0.6h2.1l0,0L19,0l9.7,0l0,0h2.1h0.6L38,6.3L19,28L0,6.3L6.6,0L6.6,0z M25.8,6.5
	c-0.1-1.6-0.9-2.7-2-3.3c-2.8-1.5-8.5-1.7-11.5,0.5c-1.5,1.1-1.5,3,0.2,3.8c5.6,2.7,14.9-1.6,18,4.4l4.8-5.5l-3.8-3.7
	c0,1.3,0,2.6,0,3.9C29.6,6.5,27.7,6.5,25.8,6.5L25.8,6.5z M27.9,2l-3.1,0c0.8,0.4,1.5,1,2.2,1.6C27.3,3.1,27.6,2.5,27.9,2L27.9,2z
	 M11,2L7.2,2L2.7,6.3l3.1,3.5c-0.1-2.4,1.1-4.9,4.4-7.4C10.4,2.3,10.7,2.2,11,2L11,2z M8,12.4l3.9,4.4c1.8-1.8,5.4-1.5,6.6,1.3
	c2.5-0.1,4.9-0.1,6.7-0.8c0.8-0.3,2.1-1.1,1.6-2.1C25.3,12.4,14.4,14.5,8,12.4L8,12.4z M14.5,19.8l4.5,5.1l4.5-5.1
	C20.5,20.3,17.5,20.3,14.5,19.8z"/>
</svg>
