<?xml version="1.0" encoding="utf-8"?>
<!-- Generator: Adobe Illustrator 19.0.0, SVG Export Plug-In . SVG Version: 6.00 Build 0)  -->
<svg version="1.1" id="Layer_1" xmlns="http://www.w3.org/2000/svg" xmlns:xlink="http://www.w3.org/1999/xlink" x="0px" y="0px"
	 viewBox="0 0 42 28" style="enable-background:new 0 0 42 28;" xml:space="preserve">
<style type="text/css">
	.st0{fill:#00588B;}
	.st1{fill:#FFCB10;}
</style>
<g id="XMLID_61_">
	<g id="XMLID_105_">
		<path id="XMLID_106_" class="st0" d="M18.2,28h20.3c2,0,3.6-1.6,3.6-3.6v-7.6H18.2V28z"/>
	</g>
	<g id="XMLID_103_">
		<path id="XMLID_104_" class="st0" d="M38.4,0H18.2v11.2H42V3.6C42,1.6,40.4,0,38.4,0z"/>
	</g>
	<g id="XMLID_88_">
		<path id="XMLID_89_" class="st0" d="M0,16.8v7.6c0,2,1.6,3.6,3.6,3.6h9V16.8H0z"/>
	</g>
	<g id="XMLID_86_">
		<path id="XMLID_87_" class="st0" d="M12.5,0h-9C1.6,0,0,1.6,0,3.6v7.6h12.5V0z"/>
	</g>
	<g id="XMLID_84_">
		<polygon id="XMLID_85_" class="st1" points="18.2,11.2 18.2,0 12.5,0 12.5,11.2 0,11.2 0,16.8 12.5,16.8 12.5,28 18.2,28 
			18.2,16.8 42,16.8 42,11.2 		"/>
	</g>
</g>
</svg>
