<?xml version="1.0" encoding="utf-8"?>
<!-- Generator: Adobe Illustrator 19.0.0, SVG Export Plug-In . SVG Version: 6.00 Build 0)  -->
<svg version="1.1" id="Layer_1" xmlns="http://www.w3.org/2000/svg" xmlns:xlink="http://www.w3.org/1999/xlink" x="0px" y="0px"
	 viewBox="0 0 72 67" style="enable-background:new 0 0 72 67;" xml:space="preserve">
<style type="text/css">
	.st0{fill:#424143;}
</style>
<path id="XMLID_2_" class="st0" d="M72,42.6V8.8C72,3.9,68.1,0,63.3,0H8.7C3.9,0,0,3.9,0,8.8v33.9c0,4.8,3.9,8.8,8.7,8.8h16.7
	l4.6,7.2l3,8.3h22.9l4.5-15.6h2.8C68.1,51.4,72,47.5,72,42.6z M5.9,35.5V8.8C5.9,7.2,7.2,6,8.7,6h54.5c1.5,0,2.8,1.3,2.8,2.8v26.7
	c0,1.6-1.3,2.8-2.8,2.8h-1.5v-1.7c0-0.5,0-3.9-2.1-6.1c-1-1-2.3-1.6-3.8-1.6c-0.5,0-1,0.1-1.5,0.2c-0.3-0.5-0.6-1-1-1.4
	c-1-1-2.3-1.6-3.8-1.6c-0.4,0-0.8,0-1.2,0.1c-0.3-0.7-0.7-1.3-1.2-1.9c-1-1-2.3-1.6-3.8-1.6c-0.6,0-1.2,0.1-1.7,0.2v-4.9
	c0-0.4,0-2.9-1.2-5l0-0.1l-0.5-0.7c-0.9-1.2-2.4-1.9-4.1-1.9c0,0,0,0,0,0h0c-2.1,0-3.8,1.6-3.9,1.7l-0.1,0.1
	c-1.8,2.1-1.6,5.2-1.6,5.8v16.3c-0.6-0.6-1.4-1.2-2.3-1.6l0,0l-0.8-0.3c-1.7-0.6-3.5-0.4-5.1,0.7l0,0c-2,1.3-2.7,3.9-2.7,4.1l0,0.2
	c0,0.1,0,0.3,0,0.4H8.7C7.2,38.3,5.9,37.1,5.9,35.5z M53.5,63.7h-18l-2.4-6.5l-9.2-14.5l-0.1-0.1c-0.4-0.6-1.7-2.5-1.5-4.2
	c0.1-0.4,0.5-1.5,1.2-2l0.1,0c0,0,0,0,0,0c0.6-0.4,1.2-0.5,1.8-0.5l0.5,0.1c1.2,0.4,2.3,1.5,3,2.3h0c0.3,0.3,0.4,0.6,0.6,0.8l4,6.1
	v0l0,0V18.3l0-0.2c-0.1-0.6,0-2.4,0.7-3.3c0.3-0.3,1-0.7,1.5-0.8l0.1,0c0,0,0,0,0.1,0c0.5,0,0.9,0.1,1.2,0.4l0.2,0.3
	c0.9,1,1,2.9,1,3.5l0,19.2h3.3V26.7l0.2,0.2c0.3-0.4,0.8-0.6,1.5-0.6c0.6,0,1.1,0.2,1.5,0.6c0.3,0.3,0.6,0.8,0.7,1.3c0,0,0,0,0,0
	l0,0c0.3,0.9,0.4,1.9,0.4,2.3l0,7.8h0v2.5h0l0,0h3.3V30.6c0-0.1,0-0.5,0-0.9c0.1,0,0.3,0,0.4,0c0.6,0,1.1,0.2,1.5,0.6
	c1,1,1.1,3,1.1,3.7l0,4.5h0l0,5.8h0l0,0h3.3V33.9c0-0.2,0-0.7-0.1-1.5c0.2,0,0.3,0,0.5,0c0.6,0,1.1,0.2,1.5,0.6c1,1,1.1,3,1.1,3.7
	v1.7h0l0,8.3L57,51.4h0L53.5,63.7z"/>
</svg>
